<?xml version="1.0" standalone="no"?>
<!DOCTYPE svg PUBLIC "-//W3C//DTD SVG 20010904//EN"
 "http://www.w3.org/TR/2001/REC-SVG-20010904/DTD/svg10.dtd">
<svg version="1.0" xmlns="http://www.w3.org/2000/svg"
 width="2048.000000pt" height="2048.000000pt" viewBox="0 0 2048.000000 2048.000000"
 preserveAspectRatio="xMidYMid meet">
<metadata>
Created by potrace 1.14, written by Peter Selinger 2001-2017
</metadata>
<g transform="translate(0.000000,2048.000000) scale(0.100000,-0.100000)"
fill="#000000" stroke="none">
<path d="M13785 18034 c-33 -8 -116 -25 -185 -38 -69 -14 -159 -32 -200 -41
-41 -8 -415 -83 -830 -165 -415 -82 -775 -154 -800 -159 -25 -6 -106 -22 -180
-36 -74 -14 -153 -30 -175 -35 -22 -5 -78 -17 -125 -26 -47 -8 -128 -24 -180
-35 -52 -11 -513 -103 -1025 -205 l-929 -185 -46 16 c-25 9 -54 20 -65 25 -11
5 -47 18 -80 29 -33 11 -105 36 -160 56 -55 20 -127 45 -160 56 -33 11 -69 24
-80 29 -11 4 -42 16 -70 25 -27 10 -59 21 -70 25 -11 5 -67 25 -125 45 -98 34
-131 46 -307 109 -38 14 -147 52 -243 86 -96 34 -205 72 -242 86 -38 13 -101
36 -140 50 -40 14 -90 32 -110 40 -21 7 -66 23 -100 34 -35 11 -72 25 -83 30
-11 5 -47 18 -80 29 -33 11 -105 36 -160 56 -241 86 -246 88 -305 82 -66 -6
-125 -33 -181 -84 -53 -48 -82 -100 -114 -208 -15 -49 -42 -139 -60 -200 -35
-113 -98 -325 -142 -475 -47 -163 -72 -245 -83 -280 -6 -19 -23 -73 -36 -120
-57 -193 -74 -251 -109 -365 -20 -66 -48 -158 -61 -205 -14 -47 -36 -121 -49
-165 -13 -44 -51 -172 -85 -285 -34 -113 -65 -218 -70 -235 -12 -43 -32 -109
-85 -285 -26 -85 -58 -193 -71 -240 -14 -47 -32 -107 -40 -135 -9 -27 -19 -63
-24 -80 -4 -16 -25 -84 -45 -150 -20 -66 -48 -157 -61 -202 -55 -189 -74 -254
-109 -368 -20 -66 -48 -158 -61 -205 -57 -194 -74 -251 -109 -365 -36 -119
-60 -200 -109 -365 -13 -47 -41 -139 -61 -205 -20 -66 -48 -158 -61 -205 -63
-211 -75 -252 -109 -368 -20 -68 -34 -130 -31 -138 5 -12 739 -14 5678 -12
l5673 3 -1 30 c-1 17 -17 82 -37 145 -19 63 -47 156 -62 205 -15 50 -42 140
-60 200 -38 127 -80 266 -125 415 -34 115 -73 243 -126 420 -19 63 -46 153
-60 200 -14 47 -34 112 -44 145 -9 33 -30 101 -45 150 -14 50 -37 124 -49 165
-13 41 -31 102 -41 135 -9 33 -26 87 -36 120 -50 165 -90 299 -114 380 -15 50
-42 140 -60 200 -38 127 -80 266 -125 415 -17 58 -44 148 -60 200 -15 52 -40
136 -55 185 -15 50 -42 140 -60 200 -18 61 -45 151 -60 200 -15 50 -36 119
-47 155 -11 36 -30 99 -42 140 -13 41 -31 102 -41 135 -9 33 -26 87 -36 120
-50 165 -90 299 -114 380 -15 50 -42 140 -60 200 -57 190 -92 307 -120 400
-47 160 -71 202 -146 262 -86 68 -179 85 -304 57z"/>
<path d="M9720 10777 c-3 -2 -117 -8 -255 -11 -137 -4 -277 -9 -310 -11 -80
-6 -203 -13 -355 -20 -69 -3 -134 -8 -145 -10 -11 -2 -69 -7 -130 -10 -108 -5
-156 -9 -480 -40 -229 -22 -635 -68 -830 -95 -266 -37 -561 -81 -665 -100 -30
-6 -156 -28 -280 -51 -673 -120 -1199 -241 -1875 -429 -121 -34 -247 -70 -280
-80 -224 -68 -290 -89 -455 -142 -102 -33 -203 -66 -225 -75 -22 -8 -71 -25
-110 -38 -38 -13 -115 -40 -170 -60 -55 -20 -118 -43 -140 -50 -59 -19 -503
-192 -552 -215 -24 -11 -45 -20 -49 -20 -3 0 -30 -11 -60 -25 -30 -14 -57 -25
-60 -25 -6 0 -258 -110 -369 -160 -33 -15 -82 -38 -110 -50 -218 -98 -501
-238 -514 -254 -9 -11 -8 -15 4 -20 19 -7 17851 -7 17871 1 11 4 12 9 3 19
-12 15 -316 165 -514 254 -27 12 -83 38 -123 56 -41 19 -75 34 -78 34 -2 0
-38 16 -80 35 -41 19 -77 35 -79 35 -3 0 -29 11 -59 25 -30 14 -57 25 -60 25
-3 0 -30 11 -60 25 -30 14 -57 25 -60 25 -4 0 -25 9 -49 19 -56 25 -168 70
-302 121 -103 40 -144 55 -392 146 -101 37 -661 225 -723 242 -19 6 -89 27
-155 47 -66 20 -133 41 -150 45 -16 4 -133 37 -260 72 -300 84 -395 109 -600
158 -93 23 -206 50 -250 60 -194 47 -596 131 -810 170 -27 5 -124 22 -215 39
-152 27 -277 48 -515 86 -449 71 -1249 162 -1670 190 -44 2 -150 9 -235 15
-311 21 -447 28 -562 29 -64 1 -127 4 -140 7 -30 7 -1311 18 -1318 11z"/>
<path d="M13605 7965 c-167 -19 -370 -56 -455 -85 -14 -4 -50 -16 -80 -25 -57
-17 -165 -55 -235 -83 -22 -9 -106 -50 -187 -90 -644 -321 -1153 -909 -1378
-1591 -41 -123 -89 -313 -105 -415 -6 -37 -8 -38 -38 -33 -18 4 -70 13 -116
22 -537 98 -1140 91 -1666 -20 l-30 -7 -14 74 c-57 318 -191 654 -377 948
-270 426 -634 758 -1079 985 -77 39 -171 84 -210 99 -38 15 -79 32 -90 37 -60
26 -281 88 -390 110 -345 69 -769 72 -1080 8 -149 -31 -362 -90 -430 -119 -11
-4 -51 -21 -90 -36 -123 -49 -346 -167 -468 -248 -738 -487 -1200 -1286 -1244
-2151 -36 -697 170 -1338 603 -1885 95 -119 329 -350 454 -446 178 -138 394
-267 600 -358 73 -32 266 -102 320 -116 19 -5 53 -14 75 -20 208 -57 466 -90
704 -90 126 0 373 19 436 34 11 3 61 12 110 21 50 9 104 21 120 26 17 5 71 20
120 34 50 14 99 30 110 35 11 5 46 18 77 29 357 128 756 396 1035 698 321 345
562 790 662 1218 12 50 26 106 30 125 5 19 12 58 16 87 8 60 6 59 165 93 348
75 749 99 1080 65 209 -22 278 -34 488 -82 104 -24 113 -28 117 -52 50 -256
109 -450 196 -646 233 -524 592 -937 1082 -1245 237 -149 537 -274 802 -335
39 -9 88 -20 110 -25 269 -61 761 -61 1060 1 270 56 451 118 696 239 168 83
346 197 509 326 108 86 325 303 413 414 74 92 197 272 247 360 47 84 160 318
160 333 0 7 4 17 9 22 5 6 25 57 44 115 118 347 163 676 144 1050 -7 154 -42
394 -73 506 -9 33 -20 77 -25 99 -26 106 -87 266 -169 438 -333 705 -995 1258
-1755 1468 -321 88 -687 119 -1010 84z m501 -756 c213 -20 475 -99 686 -205
404 -202 760 -580 930 -989 57 -135 76 -194 118 -365 39 -158 55 -389 41 -577
-12 -149 -20 -195 -57 -348 -37 -148 -69 -235 -140 -381 -192 -395 -506 -713
-903 -916 -67 -35 -230 -100 -291 -118 -25 -7 -56 -16 -70 -20 -25 -8 -108
-27 -230 -52 -43 -9 -146 -13 -310 -13 -229 0 -254 2 -375 27 -379 80 -688
234 -958 477 -158 141 -324 351 -417 526 -24 44 -46 85 -50 90 -30 42 -117
295 -144 415 -10 41 -19 84 -22 95 -14 60 -34 274 -34 365 0 91 20 305 34 365
3 11 12 54 22 95 72 326 258 667 498 917 203 211 396 346 676 471 137 61 377
124 540 141 123 12 330 13 456 0z m-7186 -43 c148 -27 296 -67 370 -98 14 -6
34 -14 45 -18 11 -4 68 -30 128 -58 533 -256 924 -731 1072 -1303 23 -87 33
-144 50 -284 62 -508 -88 -1032 -419 -1460 -131 -168 -375 -381 -556 -484
-323 -184 -653 -272 -1015 -272 -695 0 -1317 344 -1700 941 -216 336 -329 794
-296 1203 6 78 16 167 22 197 28 145 79 323 114 405 122 277 227 441 410 633
195 205 460 385 706 480 18 8 43 18 54 22 92 40 317 92 495 114 77 9 438 -3
520 -18z"/>
</g>
</svg>
