<?xml version="1.0" encoding="UTF-8"?>
<!DOCTYPE svg PUBLIC "-//W3C//DTD SVG 1.1//EN" "http://www.w3.org/Graphics/SVG/1.1/DTD/svg11.dtd">
<svg xmlns="http://www.w3.org/2000/svg" version="1.1" width="512px" height="512px" style="shape-rendering:geometricPrecision; text-rendering:geometricPrecision; image-rendering:optimizeQuality; fill-rule:evenodd; clip-rule:evenodd" xmlns:xlink="http://www.w3.org/1999/xlink">
<g><path style="opacity:1" fill="#00a8d3" d="M 386.5,170.5 C 386.337,172.857 386.503,175.19 387,177.5C 390.646,188.091 393.646,198.757 396,209.5C 302.333,208.167 208.667,208.167 115,209.5C 127.758,163.438 141.258,117.772 155.5,72.5C 155.137,71.8165 154.804,71.1499 154.5,70.5C 155.325,62.5068 159.658,59.3402 167.5,61C 188.077,68.4698 208.743,75.6365 229.5,82.5C 267.182,75.0637 304.848,67.5637 342.5,60C 349.396,58.2361 353.896,60.7361 356,67.5C 366.326,101.807 376.493,136.14 386.5,170.5 Z"/></g>
<g><path style="opacity:0.622" fill="#00a5d3" d="M 154.5,70.5 C 154.804,71.1499 155.137,71.8165 155.5,72.5C 141.258,117.772 127.758,163.438 115,209.5C 208.667,208.167 302.333,208.167 396,209.5C 393.646,198.757 390.646,188.091 387,177.5C 386.503,175.19 386.337,172.857 386.5,170.5C 391.072,183.559 395.072,196.893 398.5,210.5C 303.167,210.5 207.833,210.5 112.5,210.5C 125.928,163.559 139.928,116.893 154.5,70.5 Z"/></g>
<g><path style="opacity:1" fill="#00a8d2" d="M 326.5,245.5 C 327.6,246.558 328.934,247.392 330.5,248C 345.533,250.301 360.533,252.468 375.5,254.5C 400.828,259.609 425.495,266.943 449.5,276.5C 450.084,278.257 451.251,279.59 453,280.5C 461.077,282.73 468.577,286.23 475.5,291C 328.833,291.667 182.167,291.667 35.5,291C 37.6175,289.951 39.2842,288.451 40.5,286.5C 80.4731,267.5 122.473,254.666 166.5,248C 219.733,240.356 273.067,239.522 326.5,245.5 Z"/></g>
<g><path style="opacity:0.899" fill="#149ed2" d="M 326.5,245.5 C 343.167,247.369 359.5,250.369 375.5,254.5C 360.533,252.468 345.533,250.301 330.5,248C 328.934,247.392 327.6,246.558 326.5,245.5 Z"/></g>
<g><path style="opacity:0.479" fill="#03a2d3" d="M 449.5,276.5 C 460.065,280.449 470.065,285.449 479.5,291.5C 330.167,292.833 180.833,292.833 31.5,291.5C 34.0354,289.064 37.0354,287.397 40.5,286.5C 39.2842,288.451 37.6175,289.951 35.5,291C 182.167,291.667 328.833,291.667 475.5,291C 468.577,286.23 461.077,282.73 453,280.5C 451.251,279.59 450.084,278.257 449.5,276.5 Z"/></g>
<g><path style="opacity:0.98" fill="#00a8d3" d="M 161.5,311.5 C 187.689,311.509 208.189,322.175 223,343.5C 227.722,351.929 231.555,360.595 234.5,369.5C 248.859,367.027 263.193,366.861 277.5,369C 284.141,340.37 301.475,321.703 329.5,313C 366.572,306.953 393.739,320.453 411,353.5C 422.073,384.369 415.907,411.202 392.5,434C 370.802,451.137 346.802,455.137 320.5,446C 297.372,435.532 283.038,417.865 277.5,393C 262.679,388.194 248.012,388.36 233.5,393.5C 227.742,419.757 212.409,437.924 187.5,448C 153.919,457.324 126.753,448.158 106,420.5C 87.2374,386.245 91.7374,355.411 119.5,328C 131.929,318.278 145.929,312.778 161.5,311.5 Z M 343.5,331.5 C 375.368,332.905 392.701,349.405 395.5,381C 393.132,411.202 376.799,427.702 346.5,430.5C 316.561,427.394 300.227,410.894 297.5,381C 298.101,362.128 306.434,347.794 322.5,338C 329.289,334.678 336.289,332.512 343.5,331.5 Z M 158.5,332.5 C 195.65,333.481 213.816,352.481 213,389.5C 204.22,421.484 183.387,434.651 150.5,429C 120.07,416.412 109.57,394.245 119,362.5C 127.162,345.829 140.329,335.829 158.5,332.5 Z"/></g>
</svg>
